<?xml version="1.0" encoding="utf-8"?>
<!-- Generator: Adobe Illustrator 17.1.0, SVG Export Plug-In . SVG Version: 6.00 Build 0)  -->
<!DOCTYPE svg PUBLIC "-//W3C//DTD SVG 1.1//EN" "http://www.w3.org/Graphics/SVG/1.1/DTD/svg11.dtd">
<svg version="1.1" id="Layer_1" xmlns="http://www.w3.org/2000/svg" xmlns:xlink="http://www.w3.org/1999/xlink" x="0px" y="0px"
	 viewBox="0 0 117 121.2" enable-background="new 0 0 117 121.2" xml:space="preserve">
<g>
	<polygon fill="#EE4036" points="117,95 0,95 58.5,0 58.5,0 	"/>
	<g>
		<path fill="#EE4036" d="M4.3,109.2h-4v-2.8h11.4v2.8h-4v12H4.3V109.2z"/>
		<path fill="#EE4036" d="M22.3,114.9h-5.5v3.5H23v2.8h-9.5v-14.8h9.2v2.8h-5.8v3.1h5.5V114.9z"/>
		<path fill="#EE4036" d="M36.1,120.8c-0.6,0.3-2,0.6-3.8,0.6c-5.1,0-7.8-3.2-7.8-7.4c0-5.1,3.6-7.9,8.1-7.9c1.7,0,3.1,0.4,3.7,0.7
			l-0.7,2.7c-0.7-0.3-1.6-0.5-2.8-0.5c-2.7,0-4.7,1.6-4.7,4.9c0,3,1.8,4.8,4.8,4.8c1,0,2.1-0.2,2.8-0.5L36.1,120.8z"/>
		<path fill="#EE4036" d="M41.7,106.4v5.7h5.5v-5.7h3.3v14.8h-3.3V115h-5.5v6.2h-3.4v-14.8H41.7z"/>
		<path fill="#EE4036" d="M57.9,121.2v-14.8h3.9l3.1,5.4c0.9,1.6,1.8,3.4,2.4,5.1h0.1c-0.2-2-0.3-4-0.3-6.2v-4.3h3.1v14.8h-3.5
			l-3.2-5.7c-0.9-1.6-1.8-3.5-2.6-5.2l-0.1,0c0.1,2,0.1,4,0.1,6.5v4.5H57.9z"/>
		<path fill="#EE4036" d="M82,114.9h-5.5v3.5h6.1v2.8h-9.5v-14.8h9.2v2.8h-5.8v3.1H82V114.9z"/>
		<path fill="#EE4036" d="M87.4,121.2l-3.5-14.8h3.6l1.1,6.1c0.3,1.8,0.6,3.7,0.9,5.2h0c0.2-1.6,0.6-3.4,1-5.2l1.3-6.1h3.6l1.2,6.2
			c0.3,1.7,0.6,3.3,0.8,5h0c0.2-1.7,0.5-3.4,0.9-5.1l1.2-6.1h3.4L99,121.2h-3.6l-1.3-6.4c-0.3-1.5-0.5-2.9-0.7-4.6h0
			c-0.3,1.7-0.5,3.1-0.9,4.6l-1.4,6.4H87.4z"/>
		<path fill="#EE4036" d="M104.5,117.7c0.9,0.5,2.3,0.9,3.7,0.9c1.5,0,2.4-0.6,2.4-1.6c0-0.9-0.7-1.5-2.5-2.1
			c-2.5-0.9-4.1-2.2-4.1-4.4c0-2.5,2.1-4.5,5.6-4.5c1.7,0,2.9,0.4,3.8,0.7l-0.7,2.7c-0.6-0.3-1.7-0.7-3.1-0.7s-2.2,0.7-2.2,1.4
			c0,0.9,0.8,1.4,2.8,2.1c2.6,1,3.9,2.3,3.9,4.4c0,2.5-1.9,4.6-6,4.6c-1.7,0-3.4-0.4-4.2-0.9L104.5,117.7z"/>
	</g>
</g>
</svg>
